<?xml version="1.0" encoding="iso-8859-1"?>
<svg version="1.1" id="Layer_1" xmlns="http://www.w3.org/2000/svg" xmlns:xlink="http://www.w3.org/1999/xlink" x="0px" y="0px"
	 viewBox="0 0 510.946 510.946" style="enable-background:new 0 0 510.946 510.946;" xml:space="preserve">
<g>
	<g>
		<path d="M494.254,396.702c-11.631-56.875-38.221-114.534-59.588-160.862c-9.523-20.642-17.741-38.477-23.381-53.342
			c-18.389-48.538-52.471-157.824-52.864-159.095c-7.876-23.441-22.724-25.156-33.766-22.434
			c-22.195,5.427-21.052,30.268-20.25,47.275l11.981,105.6c-10.513-4.489-23.023-4.898-34.321,1.604
			c-10.027,5.794-16.725,15.036-18.867,26.027c-0.128,0.631-0.23,1.263-0.324,1.894c-13.798-7.979-30.012-9.532-42.462-2.347
			c-12.851,7.415-20.446,20.48-21.495,34.253c-12.45-6.485-26.377-6.613-38.639,0.469c-20.651,11.921-27.75,38.426-15.863,59.042
			l25.788,45.244c2.33,4.096,7.543,5.53,11.639,3.191c4.096-2.33,5.521-7.543,3.191-11.639l-25.813-45.278
			c-7.211-12.51-2.91-28.561,9.591-35.78c13.952-8.073,27.844,1.323,35.661,11.955l4.821,6.246c2.705,3.49,7.603,4.343,11.324,1.988
			c3.721-2.355,5.035-7.151,3.038-11.076c0,0-2.705-5.316-4.292-8.064c-7.219-12.501-2.918-28.544,9.583-35.772
			c11.639-6.724,31.155,1.579,40.124,17.101c0,0.009,0,0.009,0,0.009c2.364,4.079,7.578,5.478,11.656,3.115
			c4.079-2.355,5.478-7.578,3.115-11.657c-3.721-6.443-5.103-13.414-3.891-19.627c1.203-6.161,4.881-11.179,10.658-14.515
			c11.563-6.69,24.508,0.538,29.619,7.518c2.287,3.123,6.383,4.309,9.992,2.91c3.601-1.408,5.811-5.069,5.376-8.917L321.403,46.895
			c-1.058-23.04,1.63-27.964,7.305-29.346c4.028-0.964,9.003-2.202,13.474,11.102c0.341,1.109,34.577,110.874,53.146,159.898
			c5.845,15.42,14.182,33.502,23.842,54.443c20.233,43.878,45.235,98.091,57.088,151.134l-168.789,97.442
			c-60.015-65.408-160.111-122.564-220.646-138.786c-12.049-3.226-50.057-10.129-52.267-10.854c-1.05-1.647-1.28-5.299-0.538-8.021
			c8.183-28.544,42.428-31.795,55.339-28.314l45.389,12.151c4.574,1.237,9.233-1.485,10.445-6.033
			c1.22-4.548-1.485-9.233-6.033-10.445l-45.38-12.16c-24.55-6.588-65.792,3.9-76.194,40.209
			c-1.638,6.007-1.818,14.874,2.577,21.786c2.773,4.335,7.04,7.202,11.955,8.055c0.384,0.068,38.912,7.066,50.287,10.112
			c59.989,16.077,161.476,75.674,216.934,138.786c1.673,1.894,4.019,2.893,6.417,2.893c1.459,0,2.927-0.367,4.258-1.135
			l180.156-104.004C493.35,403.964,494.997,400.303,494.254,396.702z"/>
	</g>
</g>
<g>
</g>
<g>
</g>
<g>
</g>
<g>
</g>
<g>
</g>
<g>
</g>
<g>
</g>
<g>
</g>
<g>
</g>
<g>
</g>
<g>
</g>
<g>
</g>
<g>
</g>
<g>
</g>
<g>
</g>
</svg>
